<?xml version="1.0" encoding="UTF-8"?>
<svg id="_Слой_4" data-name="Слой 4" xmlns="http://www.w3.org/2000/svg" viewBox="0 0 771 659">
  <defs>
    <style>
      .cls-1 {
        fill: #91523a;
      }

      .cls-2 {
        fill: #80bc22;
      }

      .cls-3 {
        fill: #6aa015;
      }

      .cls-4 {
        fill: #824b33;
      }

      .cls-5 {
        fill: #afe55a;
      }

      .cls-6 {
        fill: #85b14a;
      }
    </style>
  </defs>
  <path class="cls-2" d="m552.7,78.04c-2.58-1.13-6.38-2.59-11.1-3.7-5.68-1.33-22.85-4.54-51.82,7.4-37.23,15.35-67.24,41.02-77.73,51.82-2.47,16.04-4.93,35.78-7.4,51.82l111.04-29.61c10.14-15.36,15.48-28.02,18.51-37.01,3.14-9.33,4.3-16.28,11.1-22.21,4.84-4.22,10.74-6.36,11.1-11.1.23-2.97-1.83-5.59-3.7-7.4Z"/>
  <path class="cls-3" d="m527.58,132.55c-.83,2.04-2.44,5.06-5.55,6.85-5.35,3.07-11.98.7-14.16,0-18.75-6.03-32.56,7.33-68.76,4.04-15.72-1.43-27.09-5.22-30.33,0-1.58,2.54-.53,6.07.59,8.64-.76,5.65-1.56,11.34-2.36,17.06-.79,5.63-1.57,11.12-2.36,16.24l111.04-29.61c5.87-8.89,10.09-16.83,13.22-23.72-.44.18-.87.38-1.33.51Z"/>
  <path class="cls-1" d="m411.68,183.89h-32.94c-.1-15.31-1.69-35.22-7.4-57.73-6.24-24.6-15.35-44.24-23.22-58.35.56-3.54.97-6.66,2.46-7.93,9.01-7.63,32.43-24.25,56.66-19.96,5.7,1.01,9.15,2.74,12.61,4.9,2.54,1.58,2.91,4.67,2.98,5.92.32,5.09-2.32,14.03-3.38,16.19-1.27,2.6-2.1,11.64-3.7,29.61-2.07,23.22-3.1,34.83-3.7,51.82-.33,9.48-.57,21.52-.37,35.52Z"/>
  <path class="cls-4" d="m380.1,128.18c-6.24-24.6-15.35-44.24-23.22-58.35.56-3.54.97-6.67,2.46-7.93,8.69-7.35,30.77-23.07,54.06-20.33-1.77-.66-3.76-1.22-6.16-1.65-24.24-4.3-47.65,12.33-56.66,19.96-1.49,1.26-1.9,4.39-2.46,7.93,7.87,14.11,16.99,33.75,23.22,58.35,5.71,22.52,7.3,42.42,7.4,57.73h8.72c-.23-15.03-1.9-34.15-7.36-55.71Z"/>
  <path class="cls-5" d="m495.14,146.38c-25.87-2.72-51.22.7-75.03,9.25-15.56,5.59-32.64,5.58-48.2,0-23.8-8.55-49.13-11.96-74.99-9.25-109.58,11.5-187.11,128.6-173.16,261.57,13.95,132.96,114.09,231.43,223.68,219.93,9.94-1.04,19.61-2.95,28.97-5.67,12.77-3.7,26.4-3.7,39.17,0,9.35,2.71,19,4.62,28.92,5.66,109.58,11.52,209.75-86.92,223.73-219.87,13.98-132.96-63.51-250.08-173.09-261.61Z"/>
  <g>
    <path class="cls-6" d="m259.13,307.24c0-87.75,49.83-129.74,125.09-148.41-4.17-.7-8.3-1.76-12.32-3.21-23.8-8.55-49.13-11.96-74.99-9.25-109.58,11.5-187.11,128.6-173.16,261.57,13.95,132.96,114.09,231.43,223.68,219.93,9.94-1.04,19.61-2.95,28.97-5.67,12.77-3.7,26.4-3.7,39.17,0,1.46.42,2.94.79,4.42,1.18-107.46-43.33-160.87-200.65-160.87-316.14Z"/>
    <path class="cls-6" d="m490.78,145.99c-16.03-1.26-31.83-.18-47.16,3.01,15.17-1.51,30.93-2.48,47.16-3.01Z"/>
  </g>
</svg>