<?xml version="1.0" encoding="UTF-8"?>
<svg id="_Слой_3" data-name="Слой 3" xmlns="http://www.w3.org/2000/svg" xmlns:xlink="http://www.w3.org/1999/xlink" viewBox="0 0 771 659">
  <defs>
    <style>
      .cls-1 {
        fill: #e1c032;
        stroke: #e1c032;
      }

      .cls-1, .cls-2, .cls-3, .cls-4 {
        stroke-miterlimit: 10;
        stroke-width: 2px;
      }

      .cls-2 {
        fill: #ffe28f;
        stroke: #ffe28f;
      }

      .cls-5, .cls-3 {
        fill: #654218;
      }

      .cls-3 {
        stroke: #654218;
      }

      .cls-4 {
        fill: #f8d441;
        stroke: #f8d441;
      }
    </style>
  </defs>
  <image width="1605" height="1149" transform="translate(246.2 177) rotate(10.59) scale(.21)" xlink:href="../../../../../../../../OneDrive/Рабочий стол/pngegg_36.png"/>
  <path class="cls-4" d="m683.31,554.52c-3.55,4.64-11.79,10.6-18.35,12.43-72.64,20.27-134.05,16.64-171.53,13.55-22.25-1.84-198.6-19.03-318.27-157.02-23.76-27.39-51.98-60.74-63.33-113.28-16.28-75.37,13.28-138.79,25.97-162.6,1.53-10.8,2.41-26.16-.83-44.05-2.15-11.87-5.59-21.85-8.93-29.65l19.83-20.13,32.36,11.55c-3.24,33.65,1.23,60.05,6.21,78.34,2.94,10.79,9.22,30.37,48.33,94.43,22.9,37.5,34.35,56.25,43.01,66.8,11.69,14.24,39.61,42.88,116.91,83.68,58.45,30.85,86.26,31.38,155.69,61.88,32.75,14.39,79.12,37.35,132.2,73.32.43,11.61.31,19.12.74,30.73Z"/>
  <path class="cls-2" d="m682.8,525.66c.07-1.08-.42-2.13-1.32-2.73-52.48-35.44-96.07-57.7-128.54-71.97-69.43-30.5-97.24-31.03-155.69-61.88-77.3-40.8-105.22-69.44-116.91-83.68-8.66-10.55-18.58-30.34-41.48-67.84-39.12-64.06-46.92-82.6-49.86-93.39-4.74-17.39-10.86-42.48-8.67-73.83.16-2.23-2.06-3.86-4.12-2.98l-11.97,5.08c-1.58.67-2.26,2.53-1.5,4.06l5.34,10.74c.08.17.15.34.2.51,8.71,29.04,6.31,61.17,11.68,82.62,2.72,10.85,3.66,25.83,42.78,89.89,22.9,37.5,34.35,56.25,43.01,66.8,11.69,14.24,39.61,42.88,116.91,83.68,58.45,30.85,86.26,31.38,155.69,61.88,32.53,14.29,78.5,37.05,131.13,72.6.61.41,1.01,1.06,1.22,1.76,1.36,4.5,11.37-10.39,12.1-21.31Z"/>
  <path class="cls-1" d="m200.16,411c-23.76-27.39-61.25-67.84-72.6-120.38-16.25-75.23,10.95-124.78,23.68-148.69.05-.09.08-.18.09-.28,1.51-10.79,2.38-26.1-.85-43.91-2.11-11.62-5.44-21.42-8.71-29.14-.13-.32-.06-.67.18-.92,3.58-3.63,7.16-7.27,10.75-10.9.44-.44.27-1.19-.32-1.4l-4-1.43c-.31-.11-.66-.03-.9.21l-19.05,19.33c-.24.24-.31.6-.18.92,3.27,7.72,6.6,17.52,8.71,29.14,3.23,17.81,2.37,33.11.85,43.91-.01.1-.04.19-.09.28-12.73,23.91-42.15,87.23-25.9,162.47,11.35,52.54,39.57,85.89,63.33,113.28,119.67,137.98,296.03,155.18,318.27,157.02,37.48,3.1,98.89,6.72,171.53-13.55,5.58-1.56,12.37-6.1,16.46-10.27.6-.62-.03-1.62-.86-1.4-71.56,19.58-135.37,13.82-172.38,10.76-22.25-1.84-188.34-17.06-308.01-155.04Z"/>
  <path class="cls-5" d="m666.73,530.05l-7.01,22.59,4.73,16.87c8.19-1.08,17.62-7.25,21.67-14.45-.59-10.75-.31-21.87-.9-32.63l-18.49,7.61Z"/>
  <path class="cls-3" d="m125.34,77l8.46,15.31,1.34-1.5c5.6-6.25,13.65-9.73,22.04-9.52h0c1.78.04,3.55.24,5.29.57l17.18,3.04,1.94-18.15c.1-1.45-.79-2.79-2.17-3.26l-29.95-10.33c-1.62-.56-3.42-.16-4.65,1.04l-18.79,18.22c-1.23,1.2-1.51,3.07-.68,4.57Z"/>
</svg>