<?xml version="1.0" encoding="UTF-8"?>
<svg id="_Слой_2" data-name="Слой 2" xmlns="http://www.w3.org/2000/svg" viewBox="0 0 150.37 145.18">
  <defs>
    <style>
      .cls-1 {
        opacity: .42;
      }

      .cls-1, .cls-2 {
        fill: none;
      }

      .cls-3 {
        fill: #63228c;
      }

      .cls-4 {
        fill: #e6e6e6;
      }

      .cls-2 {
        opacity: .32;
      }

      .cls-5 {
        fill: #1a1a1a;
      }
    </style>
  </defs>
  <g id="_Слой_1-2" data-name="Слой 1">
    <g>
      <ellipse class="cls-3" cx="75.21" cy="72.56" rx="67.05" ry="80.12" transform="translate(-28.57 84.89) rotate(-50.75)"/>
      <g class="cls-1">
        <path class="cls-5" d="m88.14,144.68c-5.78,0-11.63-.66-17.45-1.97.17,0,.34,0,.51,0,20.27,0,37.83-7.83,49.45-22.06,23.57-28.84,14.74-75.19-19.69-103.32-8.67-7.08-18.54-12.61-28.79-16.14,15.97,2.07,31.82,9.03,45.1,19.88,16.48,13.47,27.59,31.49,31.27,50.76,3.68,19.23-.49,37.4-11.72,51.15-11.43,13.99-28.71,21.69-48.68,21.69Z"/>
        <path d="m77.01,2.49c14.2,2.73,28.1,9.3,39.95,18.98,33.78,27.6,42.52,73,19.48,101.21-11.33,13.87-28.48,21.51-48.29,21.51-4.25,0-8.54-.36-12.83-1.07,18.68-.99,34.8-8.76,45.73-22.13,23.74-29.06,14.88-75.72-19.76-104.02-7.39-6.04-15.65-10.95-24.28-14.47M67.4.23c11.56,3.27,22.97,9.1,33.25,17.5,34.26,27.99,43.05,73.94,19.62,102.61-11.9,14.56-29.82,21.87-49.06,21.87-1.73,0-3.47-.06-5.21-.18,7.4,2.1,14.87,3.14,22.15,3.14,19.24,0,37.16-7.31,49.06-21.87,23.43-28.68,14.65-74.62-19.62-102.61C102.29,8.19,84.5,1.38,67.4.23h0Z"/>
      </g>
      <g class="cls-2">
        <path class="cls-4" d="m77.23,1.51C55.22-.61,34.13,6.59,20.7,23.02-2.73,51.7,6.06,97.64,40.32,125.63c12.38,10.12,26.39,16.5,40.35,19.18-16.4-1.58-33.3-8.33-47.93-20.28C-1.52,96.54-10.3,50.6,13.13,21.93,28.09,3.61,52.56-3.23,77.23,1.51Z"/>
      </g>
      <g class="cls-2">
        <ellipse class="cls-4" cx="14.68" cy="61.85" rx="8.48" ry="6.47" transform="translate(-48.42 54.12) rotate(-69.66)"/>
      </g>
      <g class="cls-2">
        <ellipse class="cls-4" cx="26.21" cy="74.02" rx="4.23" ry="3.22" transform="translate(-52.31 72.87) rotate(-69.66)"/>
      </g>
    </g>
  </g>
</svg>