<?xml version="1.0" encoding="UTF-8"?>
<svg id="_АРБУЗИК" data-name="АРБУЗИК" xmlns="http://www.w3.org/2000/svg" viewBox="0 0 383 381.95">
  <defs>
    <style>
      .cls-1 {
        fill: #c6d12d;
      }

      .cls-2 {
        fill: #f7edaf;
      }

      .cls-3 {
        fill: #41222a;
      }

      .cls-4 {
        fill: #603337;
      }

      .cls-5 {
        fill: #a7959d;
      }

      .cls-6 {
        fill: #fc3838;
      }
    </style>
  </defs>
  <path class="cls-6" d="m64.03,298.53c-3.4,6.69,1.98,16.54,10.13,18.35,79.94,17.49,162.73,17.49,242.67,0,8.15-1.82,13.53-11.67,10.13-18.35-37.12-73.19-87.94-170.59-126.5-257.4-1.78-4-7.41-4.1-9.33-.17-19.66,40.26-93.81,191.92-127.11,257.57Z"/>
  <path class="cls-2" d="m307.82,259.98c-32.56,7.95-71.06,12.55-112.33,12.55s-79.76-4.6-112.33-12.55c-6.4,13.14-12.78,26.01-19.14,38.55-3.4,6.69,1.98,16.54,10.13,18.35,79.94,17.49,162.73,17.49,242.67,0,8.15-1.82,13.53-11.67,10.13-18.35-6.36-12.53-12.74-25.4-19.14-38.55Z"/>
  <path class="cls-1" d="m320.03,284.75c-33.28,12.78-76.84,20.53-124.54,20.53s-91.26-7.75-124.54-20.53c-2.31,4.63-4.62,9.22-6.93,13.77-3.4,6.69,1.98,16.54,10.13,18.35,79.94,17.49,162.73,17.49,242.67,0,8.15-1.82,13.53-11.67,10.13-18.35-2.31-4.55-4.62-9.14-6.93-13.77Z"/>
  <g>
    <path class="cls-4" d="m217,110.44c0,5.22-3.58,9.45-8,9.45s-8-4.23-8-9.45,3.58-15.44,8-15.44,8,10.22,8,15.44Z"/>
    <path class="cls-3" d="m211.86,96.42c1.98,3.44,3.27,8.37,3.27,11.5,0,5.22-3.58,9.45-8,9.45-1.89,0-3.63-.78-5-2.07,1.4,2.75,3.95,4.59,6.86,4.59,4.42,0,8-4.23,8-9.45,0-4.03-2.13-11.03-5.14-14.02Z"/>
    <path class="cls-5" d="m203,107.77c-.15-4.15,1.2-9.29,5.16-11.34-2.99,3.18-3.86,7.29-5.16,11.34h0Z"/>
  </g>
  <g>
    <path class="cls-4" d="m183.03,140.45c0,5.22-3.58,9.45-8,9.45s-8-4.23-8-9.45,3.58-15.44,8-15.44,8,10.22,8,15.44Z"/>
    <path class="cls-3" d="m177.9,126.43c1.98,3.44,3.27,8.37,3.27,11.5,0,5.22-3.58,9.45-8,9.45-1.89,0-3.63-.78-5-2.07,1.4,2.75,3.95,4.59,6.86,4.59,4.42,0,8-4.23,8-9.45,0-4.03-2.13-11.03-5.14-14.02Z"/>
    <path class="cls-5" d="m169.03,137.78c-.15-4.15,1.2-9.29,5.16-11.34-2.99,3.18-3.86,7.29-5.16,11.34h0Z"/>
  </g>
  <g>
    <path class="cls-4" d="m223.97,172.32c0,5.22-3.58,9.45-8,9.45s-8-4.23-8-9.45,3.58-15.44,8-15.44,8,10.22,8,15.44Z"/>
    <path class="cls-3" d="m218.83,158.3c1.98,3.44,3.27,8.37,3.27,11.5,0,5.22-3.58,9.45-8,9.45-1.89,0-3.63-.78-5-2.07,1.4,2.75,3.95,4.59,6.86,4.59,4.42,0,8-4.23,8-9.45,0-4.03-2.13-11.03-5.14-14.02Z"/>
    <path class="cls-5" d="m209.97,169.65c-.15-4.15,1.2-9.29,5.16-11.34-2.99,3.18-3.86,7.29-5.16,11.34h0Z"/>
  </g>
  <g>
    <path class="cls-4" d="m259.97,217.67c0,5.22-3.58,9.45-8,9.45s-8-4.23-8-9.45,3.58-15.44,8-15.44,8,10.22,8,15.44Z"/>
    <path class="cls-3" d="m254.83,203.65c1.98,3.44,3.27,8.37,3.27,11.5,0,5.22-3.58,9.45-8,9.45-1.89,0-3.63-.78-5-2.07,1.4,2.75,3.95,4.59,6.86,4.59,4.42,0,8-4.23,8-9.45,0-4.03-2.13-11.03-5.14-14.02Z"/>
    <path class="cls-5" d="m245.97,215c-.15-4.15,1.2-9.29,5.16-11.34-2.99,3.18-3.86,7.29-5.16,11.34h0Z"/>
  </g>
  <g>
    <path class="cls-4" d="m208,233.67c0,5.22-3.58,9.45-8,9.45s-8-4.23-8-9.45,3.58-15.44,8-15.44,8,10.22,8,15.44Z"/>
    <path class="cls-3" d="m202.86,219.65c1.98,3.44,3.27,8.37,3.27,11.5,0,5.22-3.58,9.45-8,9.45-1.89,0-3.63-.78-5-2.07,1.4,2.75,3.95,4.59,6.86,4.59,4.42,0,8-4.23,8-9.45,0-4.03-2.13-11.03-5.14-14.02Z"/>
    <path class="cls-5" d="m194,231c-.15-4.15,1.2-9.29,5.16-11.34-2.99,3.18-3.86,7.29-5.16,11.34h0Z"/>
  </g>
  <g>
    <path class="cls-4" d="m149.97,218.67c0,5.22-3.58,9.45-8,9.45s-8-4.23-8-9.45,3.58-15.44,8-15.44,8,10.22,8,15.44Z"/>
    <path class="cls-3" d="m144.83,204.65c1.98,3.44,3.27,8.37,3.27,11.5,0,5.22-3.58,9.45-8,9.45-1.89,0-3.63-.78-5-2.07,1.4,2.75,3.95,4.59,6.86,4.59,4.42,0,8-4.23,8-9.45,0-4.03-2.13-11.03-5.14-14.02Z"/>
    <path class="cls-5" d="m135.97,216c-.15-4.15,1.2-9.29,5.16-11.34-2.99,3.18-3.86,7.29-5.16,11.34h0Z"/>
  </g>
</svg>