<?xml version="1.0" encoding="UTF-8"?>
<svg id="_Слой_1" data-name="Слой 1" xmlns="http://www.w3.org/2000/svg" viewBox="0 0 536.71 591.24">
  <defs>
    <style>
      .cls-1 {
        fill: #c6d12d;
      }

      .cls-2 {
        fill: #f7edaf;
      }

      .cls-3 {
        fill: #41222a;
      }

      .cls-4 {
        fill: #603337;
      }

      .cls-5 {
        fill: #a7959d;
      }

      .cls-6 {
        fill: #fc3838;
      }
    </style>
  </defs>
  <path class="cls-6" d="m2.1,527.5c-6.89,13.54,4.01,33.49,20.52,37.17,161.91,35.43,329.56,35.43,491.47,0,16.51-3.68,27.41-23.63,20.52-37.17C459.42,379.27,356.5,182,278.41,6.2c-3.6-8.1-15-8.31-18.89-.35C219.71,87.38,69.54,394.54,2.1,527.5Z"/>
  <path class="cls-2" d="m495.84,449.43c-65.94,16.1-143.92,25.41-227.49,25.41s-161.55-9.32-227.49-25.41c-12.96,26.62-25.89,52.68-38.76,78.07-6.89,13.54,4.01,33.49,20.52,37.17,161.91,35.43,329.56,35.43,491.47,0,16.51-3.68,27.41-23.63,20.52-37.17-12.87-25.38-25.8-51.44-38.76-78.07Z"/>
  <path class="cls-1" d="m520.58,499.6c-67.39,25.88-155.63,41.57-252.22,41.57s-184.83-15.69-252.22-41.57c-4.68,9.38-9.36,18.68-14.03,27.89-6.89,13.54,4.01,33.49,20.52,37.17,161.91,35.43,329.56,35.43,491.47,0,16.51-3.68,27.41-23.63,20.52-37.17-4.67-9.21-9.35-18.51-14.03-27.89Z"/>
  <g>
    <path class="cls-4" d="m311.9,146.57c0,10.57-7.25,19.15-16.2,19.15s-16.2-8.57-16.2-19.15,7.25-31.27,16.2-31.27,16.2,20.7,16.2,31.27Z"/>
    <path class="cls-3" d="m301.5,118.18c4.02,6.98,6.62,16.95,6.62,23.29,0,10.57-7.25,19.15-16.2,19.15-3.83,0-7.34-1.57-10.12-4.2,2.83,5.57,8,9.3,13.9,9.3,8.95,0,16.2-8.57,16.2-19.15,0-8.16-4.32-22.34-10.4-28.39Z"/>
    <path class="cls-5" d="m283.55,141.17c.42-7.95,2.63-16.86,9.09-22.06.45-.31.9-.61,1.36-.9-.39.38-.79.75-1.19,1.1-5.59,5.87-7.52,14.16-9.26,21.86h0Z"/>
  </g>
  <g>
    <path class="cls-4" d="m243.11,207.34c0,10.57-7.25,19.15-16.2,19.15s-16.2-8.57-16.2-19.15,7.25-31.27,16.2-31.27,16.2,20.7,16.2,31.27Z"/>
    <path class="cls-3" d="m232.71,178.95c4.02,6.98,6.62,16.95,6.62,23.29,0,10.57-7.25,19.15-16.2,19.15-3.83,0-7.34-1.57-10.12-4.2,2.83,5.57,8,9.3,13.9,9.3,8.95,0,16.2-8.57,16.2-19.15,0-8.16-4.32-22.34-10.4-28.39Z"/>
    <path class="cls-5" d="m214.76,201.94c.42-7.95,2.63-16.86,9.09-22.06.45-.31.9-.61,1.36-.9-.39.38-.79.75-1.19,1.1-5.59,5.87-7.52,14.16-9.26,21.86h0Z"/>
  </g>
  <g>
    <path class="cls-4" d="m326.02,271.89c0,10.57-7.25,19.15-16.2,19.15s-16.2-8.57-16.2-19.15,7.25-31.27,16.2-31.27,16.2,20.7,16.2,31.27Z"/>
    <path class="cls-3" d="m315.61,243.49c4.02,6.98,6.62,16.95,6.62,23.29,0,10.57-7.25,19.15-16.2,19.15-3.83,0-7.34-1.57-10.12-4.2,2.83,5.57,8,9.3,13.9,9.3,8.95,0,16.2-8.57,16.2-19.15,0-8.16-4.32-22.34-10.4-28.39Z"/>
    <path class="cls-5" d="m297.66,266.49c.42-7.95,2.63-16.86,9.09-22.06.45-.31.9-.61,1.36-.9-.39.38-.79.75-1.19,1.1-5.59,5.87-7.52,14.16-9.26,21.86h0Z"/>
  </g>
  <g>
    <path class="cls-4" d="m398.93,363.74c0,10.57-7.25,19.15-16.2,19.15s-16.2-8.57-16.2-19.15,7.25-31.27,16.2-31.27,16.2,20.7,16.2,31.27Z"/>
    <path class="cls-3" d="m388.52,335.35c4.02,6.98,6.62,16.95,6.62,23.29,0,10.57-7.25,19.15-16.2,19.15-3.83,0-7.34-1.57-10.12-4.2,2.83,5.57,8,9.3,13.9,9.3,8.95,0,16.2-8.57,16.2-19.15,0-8.16-4.32-22.34-10.4-28.39Z"/>
    <path class="cls-5" d="m370.57,358.34c.42-7.95,2.63-16.86,9.09-22.06.45-.31.9-.61,1.36-.9-.39.38-.79.75-1.19,1.1-5.59,5.87-7.52,14.16-9.26,21.86h0Z"/>
  </g>
  <g>
    <path class="cls-4" d="m293.68,396.15c0,10.57-7.25,19.15-16.2,19.15s-16.2-8.57-16.2-19.15,7.25-31.27,16.2-31.27,16.2,20.7,16.2,31.27Z"/>
    <path class="cls-3" d="m283.27,367.76c4.02,6.98,6.62,16.95,6.62,23.29,0,10.57-7.25,19.15-16.2,19.15-3.83,0-7.34-1.57-10.12-4.2,2.83,5.57,8,9.3,13.9,9.3,8.95,0,16.2-8.57,16.2-19.15,0-8.16-4.32-22.34-10.4-28.39Z"/>
    <path class="cls-5" d="m265.32,390.75c.42-7.95,2.63-16.86,9.09-22.06.45-.31.9-.61,1.36-.9-.39.38-.79.75-1.19,1.1-5.59,5.87-7.52,14.16-9.26,21.86h0Z"/>
  </g>
  <g>
    <path class="cls-4" d="m176.15,365.77c0,10.57-7.25,19.15-16.2,19.15s-16.2-8.57-16.2-19.15,7.25-31.27,16.2-31.27,16.2,20.7,16.2,31.27Z"/>
    <path class="cls-3" d="m165.74,337.38c4.02,6.98,6.62,16.95,6.62,23.29,0,10.57-7.25,19.15-16.2,19.15-3.83,0-7.34-1.57-10.12-4.2,2.83,5.57,8,9.3,13.9,9.3,8.95,0,16.2-8.57,16.2-19.15,0-8.16-4.32-22.34-10.4-28.39Z"/>
    <path class="cls-5" d="m147.79,360.37c.42-7.95,2.63-16.86,9.09-22.06.45-.31.9-.61,1.36-.9-.39.38-.79.75-1.19,1.1-5.59,5.87-7.52,14.16-9.26,21.86h0Z"/>
  </g>
</svg>