<?xml version="1.0" encoding="UTF-8"?>
<svg id="_Слой_7" data-name="Слой 7" xmlns="http://www.w3.org/2000/svg" viewBox="0 0 771 659">
  <defs>
    <style>
      .cls-1 {
        fill: #516b00;
      }

      .cls-2 {
        fill: #98b831;
      }

      .cls-3 {
        fill: none;
      }
    </style>
  </defs>
  <path class="cls-2" d="m679.5,334c0,82.01-32.82,156.11-85.65,209.08-19.05,19.1-40.7,35.45-64.36,48.44-16.88,9.27-34.79,16.82-53.49,22.42-14.89,4.48-30.3,7.71-46.1,9.6-8.83,1.06-17.79,1.7-26.86,1.89-2.01.05-4.02.07-6.04.07-10.02,0-19.67-.57-28.92-1.59-12.36-1.34-23.99-3.47-34.75-6.07-36.66-8.83-63.37-22.99-75.06-29.85-.8-.47-1.61-.95-2.4-1.44-86.58-51.97-143.11-151.4-141.37-252.55,2.2-127.63,97.29-264.65,239.53-288.01,11.41-1.88,23.12-3.03,35.11-3.38,2.61-.07,5.23-.11,7.86-.11,3.62,0,7.22.07,10.81.21,13.16.51,26.1,1.95,38.74,4.26,8.26,1.51,16.39,3.39,24.39,5.62,20.54,5.73,40.15,13.79,58.55,23.9h.01c89.23,48.99,150,145.92,150,257.51Z"/>
  <path class="cls-1" d="m333.33,617.84c-36.66-8.83-63.37-22.99-75.06-29.85-.8-.47-1.61-.95-2.4-1.44-1.48-3.09-2.98-5.77-4.37-8.05-10.46-17.13-18.29-17.19-25-34-4.63-11.61-3.5-18.09-11-26-6.51-6.86-10.69-5.48-15-12-5.19-7.85-2.07-14.29-4-27-1.71-11.29-5.97-18.02-10-26-6.16-12.19-25.41-54.19-31-97-1.93-14.76-5.84-47.17,6-80,8.8-24.42,21-42,21-42,12.75-18.39,14-20,14-20,8.03-10.41,10.16-11.52,11-16,2.03-10.81-8.3-15.12-7-26,.61-5.08,3.13-6.46,15-20,16.29-18.58,13.45-18.16,21-25,12.97-11.76,17.59-9.58,26-20,6.79-8.41,5.59-12.06,12-22,4.25-6.58,11.63-15.6,25-24,9.33-2.67,18.67-5.33,28-8-7.73,7.64-18.61,19.85-28,37-6.96,12.72-4.69,22.24-14,34-7.15,9.04-9.62,6.44-20,18-8.97,9.99-8.19,13.11-20,28-9.79,12.34-11.14,11.22-14,17-6.97,14.06.89,20.97-2,37-3.98,22.11-21.51,23.4-29,49-2.93,10.03-2.59,17.86-2,29,3.29,61.97,37.71,90.79,31,127-.64,3.48-2.94,13.92-2,28,.33,4.88,1.04,14.56,5,25,7.09,18.7,15.97,17.21,24,34,8.7,18.19.54,24.7,10,41,3.57,6.16,4.56,4.93,24,23,21.38,19.88,24.36,25.25,37.46,33.96,1.83,1.22,3.63,2.35,5.37,3.38Z"/>
  <path class="cls-3" d="m389.14,42.61c-11.99.35-23.7,1.5-35.11,3.38,1.05-3.43,2.69-7.04,5.47-9.49,7.25-6.38,22.76-5.3,28,2,.91,1.27,1.43,2.62,1.64,4.11Z"/>
  <path class="cls-3" d="m403.04,625.43c-2.08,8.86-10.14,17.43-17.54,17.07-3.6-.18-4.32-2.32-17.42-18.59,9.25,1.02,18.9,1.59,28.92,1.59,2.02,0,4.03-.02,6.04-.07Z"/>
  <path class="cls-1" d="m403.5,622.5c-.07.97-.23,1.95-.46,2.93-2.01.05-4.02.07-6.04.07-10.02,0-19.67-.57-28.92-1.59-1.1-1.37-2.29-2.84-3.58-4.41-6.78-8.3-9.7-11.56-13-18-3.24-6.33-5.13-12.37-5.81-14.59-2.13-6.96-2.57-11.68-4.67-17.97-1.27-3.82-2.87-7.39-5.52-12.44-11.04-21.05-23.46-34.2-31-52-7.41-17.49-7.71-33.8-8-49-.31-16.42,2.01-20.36,1-38-.76-13.32-2.36-16.04-6-38-5.45-32.91-8.74-49.55-5-60,6.74-18.83,21.28-28.15,17-38-3.53-8.12-15.66-4.41-23-15-9.46-13.66-5.49-29.9-4-36,5.12-20.94,20.92-21.06,33-49,3.53-8.17,5.85-16.46,6-17,4.11-14.88,2.45-19.25,6-32,2.42-8.7,2.87-5.5,10-24,8.21-21.32,6.14-21.73,11-29,3.61-5.4,7.54-9.34,9-17,.78-4.09.07-5.12,1-10,.34-1.77.79-4.1,1.53-6.51,11.41-1.88,23.12-3.03,35.11-3.38.99,7.17-5.41,17.59-11.64,37.89-1.64,5.33-4.09,18.56-9,45-10.54,56.8-7.79,56.11-13,67-11.82,24.7-26.61,29.57-24,44,2.39,13.22,15.84,14.79,19,30,2.23,10.75-3.62,14.08-10,34-3.79,11.85-13.49,42.11-4,71,3.14,9.57,6.02,11.76,7,21,1.73,16.28-10.13,25.57-5,36,2.38,4.83,4.97,3.43,9,10,2.71,4.42,4.65,10.12,5,22,.34,11.7-1.32,13.61-2,26-.72,13.25-1.28,26.17,5,39,1.75,3.56,2.03,3.05,10,14,11.74,16.12,17.61,24.18,22,33,8.31,16.7,3.31,16.73,13,38,1.6,3.51,3.38,7.11,3,12Z"/>
  <path class="cls-3" d="m476.5,643.5c-7.6,13.6-42.56,14.67-50,2-2.2-3.75-1.01-7.06,3.4-21.96,15.8-1.89,31.21-5.12,46.1-9.6-2.46,13.32,5,21.51.5,29.56Z"/>
  <path class="cls-3" d="m446.55,46.97c-12.64-2.31-25.58-3.75-38.74-4.26-1.58-3.74-2-6.55-.31-9.21,4.29-6.74,19.49-8.2,29-2,4.85,3.17,7.89,8.12,10.05,15.47Z"/>
  <path class="cls-1" d="m503.5,398.5c2.04,6.54,4.26,5.81,6,13,3.03,12.53-2.77,18.7-3,33-.2,12.36,4.06,12.51,5,25,1.22,16.15-5.62,19.59-10,40-5.27,24.53,3.18,26.19-3,52-1.73,7.23-4.51,18.84-12,32-4.96,8.71-6.82,9.04-9,15-.7,1.91-1.18,3.72-1.5,5.44-14.89,4.48-30.3,7.71-46.1,9.6.19-.66.39-1.34.6-2.04,5.62-19.08,10.85-36.96,14-54,1.55-8.38,3.57-19.29,4-34,.6-20.53-2.6-24.63,1-38,2.32-8.62,5.15-12.53,4-20-1.43-9.27-6.91-10.41-9-18-3.52-12.79,9.31-19.44,14-38,3.47-13.73-2.79-13.09-4-42-1.17-28.1,4.35-38.06-4-48-6.4-7.62-13.7-6.6-16-14-2.39-7.68,4.17-13,9-26,4.96-13.36.42-14.18,4-35,4.41-25.61,13.05-34.64,7-46-2.09-3.93-3.23-3.04-10-10-3.17-3.26-17.49-18.44-22-35-3.63-13.34,2.57-14.86,4-39,.46-7.77,1.55-29.36-6-53-4.54-14.2-10.14-22.71-12.69-28.79,13.16.51,26.1,1.95,38.74,4.26,2.78,9.45,4.11,22.87,5.95,41.53,1.74,17.58,1.06,24.95,7,35,6.47,10.94,11.61,9.54,17,20,8.32,16.13-.71,25.67,8,37,6.21,8.08,12.41,5.33,21,14,10.4,10.5,11.65,24.98,12,29,3.22,37.29-39.46,61.38-30,80,2.78,5.47,6.56,3.57,14,13,2.2,2.78,10.92,14.42,12,30,1.64,23.62-15.9,33.08-10,52Z"/>
  <path class="cls-3" d="m593.85,543.08c-1.4,3.66-2.85,7.46-4.35,11.42-4.7,12.42-11.17,29.78-28,43-13.79,10.83-33.67,18.19-38,13-2.91-3.49,1.94-11.77,5.99-18.98,23.66-12.99,45.31-29.34,64.36-48.44Z"/>
  <path class="cls-3" d="m529.49,76.49c-18.4-10.11-38.01-18.17-58.55-23.9-15.09-17.27-16.74-21.16-15.44-24.09,4.95-11.21,53.31-9.7,67,13,6.4,10.61-.16,16.94,6.99,34.99Z"/>
  <path class="cls-1" d="m642.5,361.5c-5.98,24.27-1.35,29.62-4,58-2.91,31.17-9.06,30.82-44.65,123.58-19.05,19.1-40.7,35.45-64.36,48.44,0,0,.01,0,.01-.02,12.34-21.96,21.54-45.56,33-68,9.72-19.02,13.14-38.68,20-78,7.37-42.24,7.76-74.42,8-104,.34-42.65.36-64.5-7-90-5.73-19.86-8.06-16.63-27-60-28.78-65.9-22.59-71.5-40-91-9.09-10.18-19.76-18.71-43-45-.89-1.01-1.74-1.98-2.56-2.91,20.54,5.73,40.15,13.79,58.55,23.9h.01c5.76,14.54,11.17,13.42,24,33.01,15.81,24.15,11.57,31.94,25,43,11.35,9.34,17.76,6.56,25,16,8.37,10.91,3.55,19.49,7,35,7.75,34.85,44.61,47.74,39,62-3,7.62-14.46,6.31-16,14-1.78,8.85,12.89,13.13,19,27,6.83,15.52-3.46,28.46-10,55Z"/>
</svg>