<?xml version="1.0" encoding="UTF-8"?>
<svg id="_Слой_2" data-name="Слой 2" xmlns="http://www.w3.org/2000/svg" viewBox="0 0 1122.9 1407.01">
  <defs>
    <style>
      .cls-1 {
        fill: #e43f50;
      }

      .cls-2 {
        fill: #fd4659;
      }
    </style>
  </defs>
  <path class="cls-2" d="m467.4,40.32c-35.77,1.45-60.9,10.65-94.99,21.57-34.09,10.92-86.06,46.08-95.51,54.93-15.41,14.43-83.46,62-91,67-83.87,55.61-69.61,62.55-97,96-30.27,36.96-19.17,84.53-1.81,129.04,14.45,37.07,34.84,72.2,42.83,111.18s.32,84.82-31.73,108.39c-12.75,9.38-28.16,14.39-41.79,22.45-46.31,27.36-65.62,88.96-52.22,141.06,13.4,52.1,54.39,94.04,102.21,118.66,16.77,8.63,34.63,15.54,49.58,27.05,29.3,22.56,43.83,62.72,35.75,98.81-9.22,41.15-43.77,72.44-56.1,112.76-12.99,42.47,1.16,89.95,28.47,124.98,27.31,35.03,66.25,59.18,106.49,77.98,96.23,44.95,204.87,62.96,310.46,51.47,37.05-4.03,74.24-11.61,111.27-7.43,50.56,5.71,128.65,7.44,177.61-6.39,85-24,91.52-51.04,127-114,33.81-59.98,56.59-65.58,80.6-130.11,25.08-67.41,3.4-254.89-17.06-291.28-32.44-57.7-72.45-115.02-66.67-180.96,5.51-62.79,39.33-119.21,56.68-179.8,29.69-103.75-42.41-135.82-107.55-221.85-30.93-40.84-22-60-87-122-25.49-24.32-47-45-89.38-64.78-44.95-20.98-81.34-28.98-124.62-53.22-27-15.13-69.15-26.13-99.64-31.4-30.5-5.27-41.86,40.9-74.86,39.9"/>
  <path class="cls-1" d="m476.17,99.71c-26.73,1.33-52.8-25.89-78.28-15.9-25.48,9.99-169.2,82.24-188,110-21,31-39,78-23.59,115.41,16.24,39.42-7.31,87.01,5.66,127.75,10.8,33.92,26.04,66.07,32,101.74,5.97,35.67.24,77.63-23.71,99.2-9.53,8.58-21.04,13.17-31.23,20.54-34.61,25.04-49.04,81.41-39.02,129.09,10.01,47.68,40.64,86.06,76.38,108.59,12.53,7.9,25.88,14.22,37.05,24.75,21.89,20.64,32.75,57.4,26.71,90.42-6.89,37.65-32.71,66.29-41.92,103.19-9.71,38.87.87,82.32,21.27,114.37,20.41,32.06,49.51,54.16,79.58,71.36,71.91,41.13,153.1,57.62,232,47.11,27.68-3.69,55.48-10.63,83.15-6.8,37.78,5.22,81.96-38.64,119.67-32.73,53.57,8.4,93.48-14.38,120-72,25.26-54.89,30.25-65.46,48.19-124.52,18.74-61.69,59.51-123.52,41.18-185.39-9.8-33.07-34.39-55.38-53.93-81.17-33.65-44.4-54.14-105.26-49.82-165.6,4.12-57.46,29.39-109.09,42.35-164.55,22.19-94.94,5.83-202.18-42.85-280.91-23.11-37.38-32.03-73.88-60.13-100.86-25-24-49-36-78-33-36.99,3.83-64,13-113,1-23.77-5.82-63-32.79-85.79-37.62-22.79-4.82-31.28,37.43-55.94,36.51"/>
</svg>